<svg xmlns="http://www.w3.org/2000/svg" xml:space="preserve" style="fill-rule:evenodd;clip-rule:evenodd;stroke-linejoin:round;stroke-miterlimit:1.41421" viewBox="0 0 1000 1050"><path d="M150 1050C67.213 1050 0 982.787 0 900V150C0 67.213 67.212 0 150 0h700c82.788 0 150 67.213 150 150v750c0 82.787-67.213 150-150 150z" style="fill:#fff"/><path d="M85 2H15C9.5 2 5 6.5 5 12v75c0 5.5 4.5 10 10 10h70c5.5 0 10-4.5 10-10V12c0-5.5-4.5-10-10-10m0 80c0 2.8-2.2 5-5 5H20c-2.8 0-5-2.2-5-5V17c0-2.8 2.2-5 5-5h60c2.8 0 5 2.2 5 5z" style="fill:#a00000;fill-rule:nonzero" transform="matrix(10 0 0 10 0 30)"/><path d="M35 42h-5c-2.8 0-5-2.2-5-5V17h-2.5c-1.4 0-2.5 1.1-2.5 2.5V47h15z" style="fill:#606060;fill-rule:nonzero" transform="matrix(10 0 0 10 0 30)"/><path d="M35 32h30v5h5V17H30v20h5z" style="fill:#606060;fill-rule:nonzero" transform="matrix(10 0 0 10 0 30)"/><path d="M77.5 17H75v20c0 2.8-2.2 5-5 5h-5v5h15V19.5c0-1.4-1.1-2.5-2.5-2.5M65 67H35v-5h-5v20h40V62h-5z" style="fill:#606060;fill-rule:nonzero" transform="matrix(10 0 0 10 0 30)"/><path d="M35 57v-5H20v27.5c0 1.4 1.1 2.5 2.5 2.5H25V62c0-2.8 2.2-5 5-5zm30 0h5c2.8 0 5 2.2 5 5v20h2.5c1.4 0 2.5-1.1 2.5-2.5V52H65z" style="fill:#606060;fill-rule:nonzero" transform="matrix(10 0 0 10 0 30)"/></svg>
